HIERARCHY
ROOT Hips
{
 OFFSET 0.000000 0.000000 0.000000
 CHANNELS 6 Xposition Yposition Zposition Yrotation Xrotation Zrotation
 JOINT Chest
 {
  OFFSET 0.000000 9.585900 0.002600
  CHANNELS 3 Yrotation Xrotation Zrotation
  JOINT Chest2
  {
   OFFSET 0.000000 9.601200 -0.005300
   CHANNELS 3 Yrotation Xrotation Zrotation
   JOINT Chest3
   {
    OFFSET 0.000000 9.561800 0.000000
    CHANNELS 3 Yrotation Xrotation Zrotation
    JOINT Chest4
    {
     OFFSET 0.000000 9.552100 0.000000
     CHANNELS 3 Yrotation Xrotation Zrotation
     JOINT Neck
     {
      OFFSET 0.000000 14.453000 0.000000
      CHANNELS 3 Yrotation Xrotation Zrotation
      JOINT Head
      {
       OFFSET 0.000000 8.936500 -0.011300
       CHANNELS 3 Yrotation Xrotation Zrotation
       End Site
       {
        OFFSET 0.000000 17.073600 -0.006000
       }
      }
     }
     JOINT RightCollar
     {
      OFFSET -2.921100 9.558500 0.000000
      CHANNELS 3 Yrotation Xrotation Zrotation
      JOINT RightShoulder
      {
       OFFSET -13.519700 0.000000 0.000000
       CHANNELS 3 Yrotation Xrotation Zrotation
       JOINT RightElbow
       {
        OFFSET 0.000000 -29.696600 0.000000
        CHANNELS 3 Yrotation Xrotation Zrotation
        JOINT RightWrist
        {
         OFFSET 0.000000 -24.004700 0.000000
         CHANNELS 3 Yrotation Xrotation Zrotation
         End Site
         {
          OFFSET 0.000000 -17.728500 0.000000
         }
        }
       }
      }
     }
     JOINT LeftCollar
     {
      OFFSET 2.921100 9.558500 0.000000
      CHANNELS 3 Yrotation Xrotation Zrotation
      JOINT LeftShoulder
      {
       OFFSET 13.519700 0.000000 0.000000
       CHANNELS 3 Yrotation Xrotation Zrotation
       JOINT LeftElbow
       {
        OFFSET 0.000000 -29.696600 0.000000
        CHANNELS 3 Yrotation Xrotation Zrotation
        JOINT LeftWrist
        {
         OFFSET 0.000000 -24.004700 0.000000
         CHANNELS 3 Yrotation Xrotation Zrotation
         End Site
         {
          OFFSET 0.000000 -17.728500 0.000000
         }
        }
       }
      }
     }
    }
   }
  }
 }
 JOINT RightHip
 {
  OFFSET -7.771700 -0.012900 -0.001300
  CHANNELS 3 Yrotation Xrotation Zrotation
  JOINT RightKnee
  {
   OFFSET 0.000000 -40.869800 0.001200
   CHANNELS 3 Yrotation Xrotation Zrotation
   JOINT RightAnkle
   {
    OFFSET 0.000000 -39.717900 0.002100
    CHANNELS 3 Yrotation Xrotation Zrotation
    JOINT RightToe
    {
     OFFSET 0.000000 -4.965400 11.033500
     CHANNELS 3 Yrotation Xrotation Zrotation
     End Site
     {
      OFFSET 0.000000 -1.423100 5.872300
     }
    }
   }
  }
 }
 JOINT LeftHip
 {
  OFFSET 7.771700 -0.012900 -0.001300
  CHANNELS 3 Yrotation Xrotation Zrotation
  JOINT LeftKnee
  {
   OFFSET 0.000000 -40.869800 0.001200
   CHANNELS 3 Yrotation Xrotation Zrotation
   JOINT LeftAnkle
   {
    OFFSET 0.000000 -39.717900 0.002100
    CHANNELS 3 Yrotation Xrotation Zrotation
    JOINT LeftToe
    {
     OFFSET 0.000000 -4.965400 11.033500
     CHANNELS 3 Yrotation Xrotation Zrotation
     End Site
     {
      OFFSET 0.000000 -1.423100 5.872300
     }
    }
   }
  }
 }
}
MOTION
Frames: 15
Frame Time: 0.008333
-3.193424 48.787567 36.996761 172.133975 -35.011335 -6.224269 5.438230 18.864707 5.328733 0.586723 2.366125 0.602406 0.965328 3.873394 0.961450 4.638650 16.193555 4.664011 -1.695846 15.416687 0.617901 -3.392642 -7.137386 1.724039 0.553971 -1.839941 -3.659205 5.611352 -5.522319 0.584048 58.634599 -80.453658 -70.155452 -0.783208 -6.697339 2.156794 -9.245126 -1.157277 -1.209732 1.635569 -3.462085 -1.353566 -116.929079 -72.085599 109.491094 12.603230 -7.781529 10.353005 8.445140 -49.239447 6.915852 -93.828495 82.811889 -81.387741 -0.711721 -4.995545 -1.758988 0.146573 -1.346803 -0.320400 -11.344411 -50.107341 15.522867 -159.800298 84.246950 -166.799531 1.602992 -12.001618 6.063501 0.000598 0.039863 0.038870
-3.197308 48.792244 37.003618 172.134589 -35.023610 -6.208172 5.437115 18.877592 5.327019 0.584081 2.367772 0.601114 0.972140 3.882399 0.966962 4.646225 16.204014 4.672470 -1.708181 15.406268 0.593712 -3.296815 -7.066788 1.621186 0.521244 -1.809520 -3.631972 5.614280 -5.555235 0.549248 58.987642 -80.438520 -70.511634 -0.641741 -6.439765 2.253026 -9.259277 -1.170040 -1.218294 1.688041 -3.430298 -1.333658 -117.106667 -72.014252 109.632794 12.512421 -7.497557 10.071005 8.407159 -48.978720 6.880640 -95.376416 82.863174 -82.876464 -0.806112 -5.163753 -1.819016 0.178888 -1.331899 -0.238685 -11.314109 -50.091987 15.493705 -159.770107 84.265565 -166.773991 1.589409 -11.998225 6.067858 0.000740 0.042392 0.038941
-3.203817 48.797282 37.007386 172.144382 -35.058464 -6.173527 5.420191 18.912526 5.321155 0.582327 2.372382 0.572266 0.980345 3.897600 0.999105 4.640109 16.208013 4.662865 -1.681890 15.430033 0.554974 -3.233201 -7.028537 1.530519 0.508079 -1.812813 -3.644525 5.586259 -5.541894 0.572776 59.825003 -80.406127 -71.360777 -0.518172 -6.103018 2.393602 -9.253668 -1.141091 -1.204492 1.740851 -3.433791 -1.340477 -117.341913 -71.949377 109.800663 12.421587 -7.150977 9.736139 8.380754 -48.684250 6.813245 -96.593987 82.900946 -84.037877 -0.914840 -5.280444 -1.887524 0.232636 -1.337748 -0.162431 -11.250429 -50.051723 15.423915 -159.674689 84.288187 -166.686742 1.554128 -12.005116 6.065497 0.015838 0.055787 0.055160
-3.203938 48.799997 37.015059 172.151951 -35.080329 -6.173876 5.417774 18.938281 5.342156 0.584699 2.373651 0.569087 0.976176 3.896477 0.985615 4.655109 16.227656 4.691435 -1.626269 15.481405 0.502118 -3.206449 -7.025237 1.457388 0.491192 -1.822018 -3.659811 5.564840 -5.530263 0.596699 60.734806 -80.348542 -72.291714 -0.383568 -5.727463 2.546715 -9.251520 -1.120926 -1.186425 1.805577 -3.431670 -1.352883 -117.609052 -71.903008 110.004367 12.334389 -6.762766 9.319977 8.304391 -48.401990 6.797476 -97.434551 82.932566 -84.832475 -0.984423 -5.373897 -1.922459 0.246263 -1.323998 -0.129321 -11.233715 -50.029147 15.422590 -159.743693 84.302857 -166.763146 1.518092 -12.001034 6.069652 0.008963 0.039942 0.047269
-3.201477 48.801966 37.023185 172.174678 -35.107646 -6.194726 5.407706 18.977510 5.379507 0.586877 2.382382 0.595197 0.972896 3.888445 0.959591 4.654540 16.239997 4.699258 -1.590388 15.510609 0.454275 -3.154264 -6.998752 1.367723 0.465669 -1.797639 -3.621553 5.539879 -5.529608 0.590145 61.782080 -80.252074 -73.332648 -0.217361 -5.330456 2.696709 -9.250576 -1.099906 -1.178280 1.841143 -3.452794 -1.374761 -117.743470 -71.868850 110.130066 12.251348 -6.358345 8.841393 8.191371 -48.112732 6.800270 -97.907699 82.954683 -85.272832 -1.033926 -5.430197 -1.915109 0.236782 -1.296850 -0.135396 -11.240885 -50.002037 15.443380 -159.939273 84.315524 -166.967234 1.469607 -11.995729 6.076111 0.006007 0.040970 0.054878
-3.193208 48.801169 37.036260 172.204985 -35.113721 -6.255835 5.401782 18.996760 5.450334 0.586563 2.383679 0.596601 0.974505 3.903251 0.986371 4.651998 16.244701 4.709913 -1.600532 15.497202 0.385909 -3.069242 -6.940385 1.260261 0.448034 -1.819904 -3.663974 5.508684 -5.506420 0.619191 62.770271 -80.141441 -74.326575 -0.029366 -4.904157 2.852066 -9.278186 -1.068952 -1.168854 1.963082 -3.459118 -1.396274 -118.087571 -71.849563 110.401490 12.170276 -5.961947 8.350750 8.024208 -47.850741 6.850381 -98.037256 82.952771 -85.381401 -1.024238 -5.474204 -1.859345 0.175395 -1.222206 -0.184594 -11.302725 -50.000634 15.527242 -159.869425 84.312366 -166.895084 1.449122 -11.984686 6.080079 0.007231 0.040031 0.056654
-3.181566 48.801723 37.047803 172.247666 -35.141328 -6.341326 5.397128 19.031757 5.538521 0.583221 2.381573 0.588273 0.977177 3.910762 0.999884 4.649629 16.254929 4.730118 -1.568738 15.524483 0.329211 -3.015500 -6.911902 1.172188 0.437148 -1.834599 -3.687964 5.479533 -5.486402 0.632895 63.713534 -80.015587 -75.283400 0.173204 -4.466223 3.017852 -9.296676 -1.055215 -1.166449 2.070780 -3.440619 -1.390038 -118.420566 -71.850667 110.656518 12.064472 -5.592830 7.875927 7.820545 -47.559479 6.921778 -97.848468 82.900000 -85.182067 -0.959981 -5.553427 -1.623539 0.099459 -1.081121 -0.371287 -11.393506 -49.974830 15.624840 -159.797996 84.304565 -166.810622 1.446212 -11.980217 6.068661 0.006525 0.036298 0.051118
-3.175749 48.797758 37.063733 172.240706 -35.139270 -6.366570 5.416553 19.028971 5.589543 0.581847 2.384887 0.579033 0.980216 3.920370 1.021041 4.637946 16.250977 4.715836 -1.525516 15.567648 0.302091 -2.964728 -6.884034 1.086455 0.415314 -1.829135 -3.663710 5.460829 -5.469401 0.623334 64.648249 -79.879208 -76.232589 0.395143 -4.023305 3.208514 -9.302272 -1.034810 -1.151510 2.121944 -3.438405 -1.390147 -118.621512 -71.843466 110.791994 11.948398 -5.243364 7.454413 7.668247 -47.267494 6.944745 -97.366003 82.794833 -84.705594 -0.865580 -5.898989 -1.124799 0.049295 -0.738428 -0.733925 -11.420822 -49.984521 15.683338 -159.832654 84.308136 -166.836624 1.427080 -11.977909 6.051497 0.002812 0.030372 0.043209
-3.175154 48.787545 37.086992 172.158646 -35.088061 -6.323789 5.475128 18.970929 5.607851 0.588406 2.389764 0.580139 0.975360 3.927457 1.026650 4.632234 16.250694 4.705906 -1.492389 15.600727 0.280049 -2.907770 -6.849365 0.997501 0.401446 -1.823425 -3.636273 5.433800 -5.450874 0.614685 65.559293 -79.750760 -77.162723 0.640439 -3.576359 3.436885 -9.300607 -1.014875 -1.139939 2.132964 -3.458982 -1.407852 -118.552430 -71.768851 110.774413 11.908803 -4.906996 6.969195 7.536639 -46.997136 6.985280 -96.453155 82.692611 -83.836155 -0.779352 -6.574082 -0.707922 0.017386 -0.195922 -0.972515 -11.374691 -50.053903 15.717873 -160.070150 84.321464 -167.068168 1.389953 -11.969921 6.037461 0.001163 0.040316 0.056323
-3.172116 48.776682 37.111993 172.087125 -35.029340 -6.304056 5.523252 18.907032 5.642456 0.595760 2.391859 0.582151 0.973848 3.930428 1.016618 4.640284 16.268370 4.733831 -1.472093 15.617467 0.239051 -2.852904 -6.816717 0.909108 0.374930 -1.830675 -3.621026 5.420805 -5.430788 0.603974 66.439310 -79.640419 -78.068301 0.895086 -3.127409 3.707022 -9.301914 -1.009193 -1.146252 2.193236 -3.434599 -1.356490 -118.823029 -71.756510 111.017886 11.839810 -4.560487 6.517457 7.279631 -46.737405 7.150837 -95.123687 82.610202 -82.619017 -0.686087 -7.305833 -0.594806 -0.016465 0.314582 -0.932876 -11.310948 -50.139294 15.753787 -161.115817 84.347324 -168.076450 1.280014 -11.965045 5.994280 -0.011416 0.045664 0.089339
-3.169945 48.771566 37.128213 172.047446 -35.029772 -6.291475 5.547138 18.906602 5.673267 0.599161 2.396221 0.580050 0.977776 3.931013 1.007433 4.649854 16.285534 4.762085 -1.451800 15.631706 0.200609 -2.799010 -6.782360 0.821358 0.342178 -1.817421 -3.563480 5.419405 -5.423905 0.555114 67.289893 -79.552711 -78.943371 1.141276 -2.677419 4.025926 -9.306785 -1.019713 -1.165750 2.218778 -3.423646 -1.308243 -118.977561 -71.754010 111.185972 11.751545 -4.184994 6.028843 6.908969 -46.438617 7.390081 -93.790302 82.507224 -81.451530 -0.555495 -7.889481 -0.675861 -0.032903 0.627274 -0.764107 -11.265011 -50.156070 15.767157 -161.672126 84.361609 -168.615632 1.212882 -11.952113 5.993783 -0.002110 0.036476 0.077516
-3.168543 48.768885 37.141128 172.037819 -35.048212 -6.290409 5.553084 18.925044 5.690664 0.593070 2.402855 0.595464 0.979431 3.936180 1.011100 4.654577 16.292705 4.775254 -1.426013 15.651277 0.154391 -2.750466 -6.745395 0.737868 0.331134 -1.813842 -3.568551 5.390953 -5.400128 0.568606 68.128114 -79.489999 -79.798306 1.369087 -2.228127 4.408273 -9.301218 -0.982347 -1.160255 2.231870 -3.461551 -1.301114 -119.118570 -71.748279 111.345626 11.656686 -3.758622 5.484849 6.453947 -46.142279 7.651231 -92.777092 82.410493 -80.588670 -0.400942 -8.415829 -0.936050 -0.021517 0.826322 -0.534665 -11.230433 -50.150984 15.766258 -162.170808 84.376138 -169.099940 1.158041 -11.945433 5.970424 -0.002866 0.032575 0.086274
-3.166205 48.770635 37.149930 172.034343 -35.094324 -6.297179 5.560196 18.969661 5.715668 0.597225 2.402935 0.636025 0.973326 3.946298 0.989445 4.663179 16.302063 4.787003 -1.404190 15.669696 0.112129 -2.708638 -6.706552 0.660466 0.318184 -1.803196 -3.573101 5.348043 -5.376993 0.590432 68.992486 -79.453827 -80.674149 1.574999 -1.772248 4.866624 -9.306760 -0.937743 -1.143186 2.238728 -3.515959 -1.328789 -119.222182 -71.722904 111.471989 11.550269 -3.253331 4.850032 5.972609 -45.845741 7.918395 -91.867918 82.414758 -79.788013 -0.338049 -8.885447 -1.316102 0.020684 0.945788 -0.295330 -11.199834 -50.109714 15.766684 -162.568257 84.389265 -169.485801 1.120841 -11.952022 5.908464 -0.011465 0.035338 0.127941
-3.158681 48.776407 37.159757 172.068350 -35.135247 -6.360523 5.556631 18.998749 5.791268 0.595925 2.412118 0.624389 0.980013 3.949393 1.007750 4.671228 16.313424 4.800817 -1.393861 15.688482 0.074900 -2.668121 -6.668003 0.586520 0.295734 -1.783684 -3.576827 5.294262 -5.352291 0.615106 69.902909 -79.444039 -81.593628 1.764670 -1.294468 5.401755 -9.327798 -0.901111 -1.126972 2.250695 -3.558026 -1.350685 -119.371705 -71.702985 111.659989 11.431112 -2.650741 4.078626 5.448781 -45.599466 8.222071 -90.716339 82.555806 -78.737353 -0.439807 -9.198060 -1.682273 0.096963 0.961100 -0.103693 -11.253135 -50.064114 15.832952 -162.874402 84.398722 -169.783040 1.078668 -11.949812 5.878556 -0.006417 0.024874 0.113300
-3.146405 48.786391 37.175075 172.069740 -35.146723 -6.443119 5.591663 19.000616 5.900776 0.592819 2.414180 0.615591 1.002217 3.962956 1.048392 4.652262 16.311970 4.789150 -1.380725 15.706455 0.041057 -2.625254 -6.632552 0.514205 0.277021 -1.764673 -3.579223 5.235033 -5.319689 0.635987 70.850123 -79.454223 -82.545788 1.948926 -0.782131 6.002677 -9.346036 -0.865780 -1.110527 2.346150 -3.553572 -1.296525 -119.868743 -71.737337 112.146646 11.307289 -1.955342 3.157545 4.982299 -45.458728 8.526048 -89.568802 82.743259 -77.678789 -0.550864 -9.322631 -1.939238 0.147731 0.871119 -0.022663 -11.344824 -50.042163 15.972162 -162.933321 84.402101 -169.830373 1.065640 -11.953949 5.839167 -0.014473 0.035256 0.136633
